<svg xmlns="http://www.w3.org/2000/svg" width="40" height="40" viewBox="0 0 40 40"><g fill="none" fill-rule="evenodd"><path fill="transparent" d="M0 0h40v40H0z"/><path fill="#FFF" d="M28.977 14.286c-.65.308-1.34.508-2.072.6a3.792 3.792 0 001.589-2.105 7.303 7.303 0 01-2.293.927 3.5 3.5 0 00-2.627-1.208c-1.99 0-3.602 1.704-3.602 3.811 0 .296.03.588.09.864-2.988-.152-5.646-1.675-7.424-3.975a3.966 3.966 0 00-.485 1.915c0 1.319.635 2.492 1.603 3.166a3.453 3.453 0 01-1.632-.474v.052c0 1.843 1.242 3.38 2.89 3.736a3.445 3.445 0 01-.952.127 2.91 2.91 0 01-.674-.069c.457 1.52 1.788 2.624 3.364 2.646a6.952 6.952 0 01-5.334 1.577 9.753 9.753 0 005.523 1.72c6.625 0 10.25-5.809 10.25-10.844 0-.16-.004-.324-.012-.487a7.755 7.755 0 001.798-1.98"/></g></svg>