<svg xmlns="http://www.w3.org/2000/svg" width="20" height="14" viewBox="0 0 20 14"><g fill="#FF715B" fill-rule="evenodd"><path d="M14.93 12a8.036 8.036 0 00-3.356-3.16c.878-.53 1.958-.84 3.125-.84 2.747 0 5.008 1.71 5.301 4h-5.07zM18 4a3 3 0 11-6 0 3 3 0 016 0zm-2 0a1 1 0 10-2 0 1 1 0 002 0z"/><path fill-rule="nonzero" d="M7 2a2 2 0 100 4 2 2 0 000-4zm0 6a4 4 0 110-8 4 4 0 010 8zm6.544 4.522a5.116 5.116 0 00-.299-.522H.755c-.11.169-.21.343-.299.522L1.747 14h.286C2.436 12.341 4.44 11 7 11c2.559 0 4.564 1.341 4.967 3h.286l1.291-1.478zM7 9c-3.627 0-6.613 2.138-7 5h14c-.387-2.862-3.373-5-7-5z"/></g></svg>